<svg id="Layer_1" data-name="Layer 1" xmlns="http://www.w3.org/2000/svg" viewBox="0 0 512 512"><defs><style>.cls-1{fill:#693794;}</style></defs><title>logo-purple-box</title><path class="cls-1" d="M334,80A55,55,0,0,0,309,74H55.47A55.63,55.63,0,0,0,0,129.49V383.06a55.63,55.63,0,0,0,55.47,55.47H309a55.63,55.63,0,0,0,55.46-55.47V192.45c19.47-3.35,42.59-3.34,70,1L512,122.16C462.47,75.32,393.58,63.3,334,80ZM57,415.75a34.27,34.27,0,0,1-34.17-34.17V131A34.27,34.27,0,0,1,57,96.81H293.22A171.55,171.55,0,0,0,258,123c-61.12,59.14-67.52,136.43-74.58,172.86S159.89,149.45,110,125L22.91,178.51l-.13,26.33,113.4,210.91Zm284.77-34.17a34.27,34.27,0,0,1-34.17,34.17H274.06S229.6,239.21,341.72,198.4Z"/></svg>