<svg id="Layer_1" data-name="Layer 1" xmlns="http://www.w3.org/2000/svg" viewBox="0 0 841.89 192"><defs><style>.cls-1{font-size:249.2px;font-family:SFProDisplay-Medium, SF Pro Display;font-weight:500;}.cls-1,.cls-2{fill:#693895;}</style></defs><title>logo-purple-text_1</title><text class="cls-1" transform="translate(0 180.83)"><tspan xml:space="preserve">uHi    ed</tspan></text><path class="cls-2" d="M499.77,47.65H407.12a20.32,20.32,0,0,0-20.26,20.27v92.64a20.32,20.32,0,0,0,20.26,20.27h92.65A20.33,20.33,0,0,0,520,160.56V67.92A20.33,20.33,0,0,0,499.77,47.65ZM511.71,160a12.52,12.52,0,0,1-12.49,12.48H407.66A12.52,12.52,0,0,1,395.18,160V68.46A12.52,12.52,0,0,1,407.66,56h91.56a12.53,12.53,0,0,1,12.49,12.49Z"/><path class="cls-2" d="M487,172.5s-23.76-94.32,58.63-81.21l28.3-26.05C547.18,40,505,42.43,481.11,65.53c-22.33,21.6-24.67,49.84-27.25,63.15S445.27,75.21,427,66.27L395.22,85.82l0,9.62,41.43,77.06"/></svg>